# xmcd CD database file
#
# Track frame offsets:
#	150
#	9398
#	24513
#	39520
#	59818
#	73973
#
# Disc length: 1100 seconds
#
# Revision: 0
# Processed by: cddbd v1.4PL0 Copyright (c) Steve Scherf et al.
# Submitted via: CDex 1.50Beta7
#
DISCID=50044a06
DTITLE=Purr - Praise The Bottle
DYEAR=1990
DGENRE=Jazz
TTITLE0=Weekend In Miami
TTITLE1=Sunny Side Up Easy Over
TTITLE2=Homicide
TTITLE3=Write It Out
TTITLE4=Hoola Hoola
TTITLE5=Midnight Blue Cocktails
EXTD=YEAR: 1990
EXTT0=
EXTT1=
EXTT2=
EXTT3=
EXTT4=
EXTT5=
PLAYORDER=
